# xmcd
#
# Track frame offsets: 
#        150
#        15525
#        35569
#        56739
#        72874
#        93866
#        118483
#        145556
#        164797
#        194388
#        212756
#        229906
#
# Disc length: 3348 seconds
#
# Revision: 3
# Processed by: cddbd v1.5.1PL0 Copyright (c) Steve Scherf et al.
# Submitted via: ExactAudioCopy v0.95a4
#
DISCID=af0d120c
DTITLE=Various Artist - New Project
DYEAR=1900
DGENRE=
TTITLE0=??? - Track: 1
TTITLE1=??? - Track: 2
TTITLE2=??? - Track: 3
TTITLE3=??? - Track: 4
TTITLE4=??? - Track: 5
TTITLE5=??? - Track: 6
TTITLE6=??? - Track: 7
TTITLE7=??? - Track: 8
TTITLE8=??? - Track: 9
TTITLE9=??? - Track: 10
TTITLE10=??? - Track: 11
TTITLE11=??? - Track: 12
EXTD=
EXTT0=
EXTT1=
EXTT2=
EXTT3=
EXTT4=
EXTT5=
EXTT6=
EXTT7=
EXTT8=
EXTT9=
EXTT10=
EXTT11=
PLAYORDER=
